<?xml version="1.0" standalone="no"?>
<!DOCTYPE svg PUBLIC "-//W3C//DTD SVG 20010904//EN"
 "http://www.w3.org/TR/2001/REC-SVG-20010904/DTD/svg10.dtd">
<svg version="1.0" xmlns="http://www.w3.org/2000/svg"
 width="228.000000pt" height="228.000000pt" viewBox="0 0 228.000000 228.000000"
 preserveAspectRatio="xMidYMid meet">
<metadata>
Created by potrace 1.11, written by Peter Selinger 2001-2013
</metadata>
<g transform="translate(0.000000,228.000000) scale(0.100000,-0.100000)"
fill="#000000" stroke="none">
<path d="M383 2266 c-161 -39 -294 -160 -355 -322 -23 -59 -23 -62 -26 -759
-2 -486 1 -721 8 -767 34 -198 190 -362 387 -403 100 -21 1386 -21 1486 0 197
41 353 205 387 403 7 46 10 281 8 767 -3 697 -3 700 -26 759 -63 167 -204 290
-370 325 -79 16 -1429 14 -1499 -3z m921 -305 c145 -71 223 -236 186 -391 -16
-66 -76 -208 -131 -309 -70 -128 -219 -334 -232 -321 -27 28 -161 251 -207
345 -88 179 -114 262 -115 365 0 71 4 94 26 140 87 186 293 260 473 171z m428
-1328 c28 -25 22 -33 -27 -33 -45 0 -45 0 -72 -55 -15 -30 -31 -55 -35 -55 -5
0 -20 25 -35 55 l-27 55 -48 0 -48 0 0 -100 c0 -55 -4 -100 -8 -100 -4 0 -33
44 -64 98 -54 95 -56 97 -94 100 l-39 2 -49 -90 c-57 -104 -76 -126 -76 -87 0
26 -1 26 -87 29 l-88 3 0 45 0 45 76 3 c73 3 77 4 82 27 l4 25 -97 0 c-123 0
-134 -8 -128 -102 2 -35 8 -71 12 -81 7 -16 5 -18 -15 -15 -16 2 -25 11 -27
26 -3 21 -8 22 -78 22 -67 0 -74 2 -74 20 0 18 7 20 70 20 63 0 70 2 70 20 0
18 -7 20 -70 20 -56 0 -70 3 -70 15 0 12 15 15 75 15 68 0 75 2 75 20 0 19 -7
20 -105 20 l-105 0 0 -99 c0 -95 -1 -99 -20 -94 -39 10 -50 41 -50 145 l0 98
577 0 c522 0 578 -2 595 -17z m-432 -130 c0 -8 -12 -13 -30 -13 l-31 0 17 32
c16 30 17 31 30 13 8 -10 14 -25 14 -32z m235 -33 c32 -63 31 -70 -5 -70 l-30
0 0 60 c0 33 2 60 5 60 2 0 16 -22 30 -50z m163 -7 c-3 -58 -3 -58 -37 -61
-29 -3 -33 -1 -27 15 8 20 9 22 -61 -62 -27 -33 -62 -78 -77 -100 -26 -40 -36
-42 -14 -2 25 47 151 207 163 207 7 0 18 14 25 30 19 47 31 35 28 -27z m-358
-27 c0 -2 3 -11 6 -20 5 -14 -5 -16 -70 -16 -57 0 -76 3 -76 13 0 8 3 17 7 20
7 7 133 10 133 3z m-695 -87 c-4 -6 3 -5 14 3 18 11 23 11 31 -2 5 -8 10 -10
10 -4 0 16 80 17 80 1 0 -8 4 -7 10 3 9 13 10 13 10 0 0 -13 1 -13 10 0 9 13
11 13 20 0 6 -10 10 -11 10 -2 0 6 11 12 25 12 16 0 25 -6 25 -15 0 -18 -16
-20 -24 -2 -5 10 -7 10 -12 0 -7 -15 -80 -17 -89 -3 -3 6 -12 10 -18 10 -7 0
-6 -4 3 -10 11 -7 -2 -10 -42 -10 -32 0 -61 0 -65 -1 -5 0 -9 7 -11 15 -2 9 2
16 8 16 6 0 8 -5 5 -11z m452 -4 c10 -11 -5 -13 -87 -13 -75 -1 -100 3 -100
12 0 19 168 19 187 1z m83 0 c-7 -8 -23 -15 -36 -15 -15 0 -24 6 -24 15 0 11
11 15 36 15 31 0 35 -2 24 -15z m104 3 c-6 -10 -5 -10 7 -1 21 17 229 16 229
-2 0 -10 -26 -13 -112 -15 -62 -1 -120 -2 -128 -1 -8 0 -30 1 -47 1 -22 0 -33
5 -33 15 0 11 12 15 46 15 33 0 43 -3 38 -12z m499 -25 c10 26 25 21 29 -10 2
-17 8 -27 16 -25 8 1 11 -2 7 -8 -11 -19 -35 -10 -36 13 l0 22 -16 -22 c-20
-30 -33 -29 -33 3 0 15 -4 23 -11 19 -6 -4 -8 -13 -5 -21 3 -8 -4 -24 -15 -35
-16 -16 -23 -18 -35 -8 -8 7 -12 20 -9 30 4 11 4 19 2 19 -3 0 -37 -45 -77
-100 -41 -55 -75 -100 -77 -100 -5 0 3 13 48 82 31 46 36 57 23 62 -8 3 -32
-5 -52 -19 -20 -14 -46 -25 -57 -25 -16 0 -14 3 10 16 17 8 44 28 60 45 37 35
55 37 48 7 -4 -19 1 -17 30 15 25 27 42 37 64 37 16 0 38 6 49 14 17 13 20 12
24 -7 5 -19 7 -20 13 -4z"/>
<path d="M1040 1899 c-101 -45 -160 -138 -160 -249 1 -284 382 -374 509 -119
92 183 -35 389 -239 389 -44 0 -80 -7 -110 -21z m205 -48 c113 -51 157 -187
97 -302 -48 -93 -167 -142 -264 -110 -155 51 -200 260 -81 373 61 58 169 75
248 39z"/>
<path d="M1060 1645 l0 -135 35 0 c35 0 35 0 35 45 0 45 0 45 35 45 42 0 90
22 99 45 10 28 7 80 -7 99 -15 21 -74 35 -144 36 l-53 0 0 -135z m149 51 c4
-23 -24 -46 -56 -46 -20 0 -23 5 -23 36 0 35 1 35 37 32 28 -2 39 -8 42 -22z"/>
<path d="M1697 293 c-13 -13 -7 -32 8 -27 8 4 15 12 15 20 0 15 -12 19 -23 7z"/>
</g>
</svg>
